# xmcd
#
# Track frame offsets:
#	150
#	25167
#	54785
#	79820
#	100605
#	122620
#	150462
#	165697
#	183542
#	208442
#	230535
#	248802
#
# Disc length: 3555 seconds
#
# Revision: 4
# Processed by: cddbd v1.5.2PL0 Copyright (c) Steve Scherf et al.
# Submitted via: EZCDAudioConverter 1.0.6.1
#
DISCID=930de10c
DTITLE=Chris Ardoin and Double Clutchin' - Best Kept Secret
DYEAR=2000
DGENRE=Blues
TTITLE0=Holdin' On
TTITLE1=Papa Was A Rollin' Stone
TTITLE2=What You Got Down There: Part 2
TTITLE3=Best Kept Secret
TTITLE4=Hold That Tiger
TTITLE5=What's In The Bayou
TTITLE6=Lyin' Cryin' and Tryin'
TTITLE7=If It Makes You Happy It Just Ain't Right
TTITLE8=I Don't Want Nobody Here But You
TTITLE9=Storm Don't Last Long
TTITLE10=Get Gone
TTITLE11=Chris's Trail Ride
EXTD=
EXTT0=
EXTT1=
EXTT2=
EXTT3=
EXTT4=
EXTT5=
EXTT6=
EXTT7=
EXTT8=
EXTT9=
EXTT10=
EXTT11=
PLAYORDER=
